<?xml version="1.0"?>
<svg version="1.1" xmlns="http://www.w3.org/2000/svg" width="400px" height="200px" style="border: dashed 2px #aaa"><path fill="#" d="M56.89,97.27l2.73,0c3.38,0,5.72,1.43,5.72,4.498c0,2.262-1.066,3.64-3.12,4.29c2.444,0.702,3.718,2.158,3.718,4.16c0,3.822-2.548,5.382-6.76,5.382l-8.268,0l0-2.21l1.95-0.78l0-12.22l-1.95-0.78l0-2.21z M56.89,104.758l1.508,0c1.898,0,2.912-0.806,2.912-2.418c0-1.352-0.962-1.95-2.21-1.95l-2.21,0l0,4.368z M56.89,112.48l2.158,0c1.82,0,2.782-0.832,2.782-2.262c0-1.898-1.092-2.73-3.432-2.73l-1.508,0l0,4.992z M75.28526,101.56l0.234,1.794s1.872-2.054,3.614-2.054c1.43,0,2.418,0.468,2.418,0.468l-0.208,4.992l-2.34,0l-0.39-2.21c-1.508,0-2.808,1.456-2.808,1.456l0,6.864l2.6,0.65l0,2.08l-8.58,0l0-2.08l2.08-0.65l0-8.45l-2.08-0.65l0-2.08z M93.26452,115.6l-0.468-1.69s-2.002,1.95-4.212,1.95c-2.522,0-4.056-1.482-4.056-4.082c0-3.068,2.314-4.29,6.266-4.29l1.82,0l0-1.43c0-1.326-0.702-1.898-2.002-1.898c-1.326,0-2.288,0.39-2.288,0.39l-0.39,1.638l-2.34,0l-0.182-3.848s3.146-1.04,5.642-1.04c3.952,0,5.46,1.378,5.46,5.148l0,6.422l1.95,0.468l0,2.08z M92.61452,109.698l-1.482,0c-2.028,0-2.834,0.52-2.834,1.69c0,0.988,0.546,1.56,1.534,1.56c1.378,0,2.782-1.508,2.782-1.508l0-1.742z M107.34378,101.56l0.182,1.794s2.47-2.002,4.784-2.002c2.522,0,3.952,1.794,3.952,4.628l0,6.89l1.82,0.65l0,2.08l-7.15,0l0-2.08l1.43-0.65l0-6.188c0-1.196-0.676-2.08-1.768-2.08c-1.612,0-2.782,1.482-2.782,1.482l0,6.786l1.43,0.65l0,2.08l-7.41,0l0-2.08l2.08-0.65l0-8.45l-2.08-0.65l0-2.08z M131.06904,115.6l-0.234-1.378c-0.364,0.364-1.69,1.638-3.926,1.638c-3.64,0-5.33-2.652-5.33-6.942c0-4.888,2.34-7.618,7.098-7.618c0.624,0,1.378,0.13,1.95,0.26l0-3.302l-2.08-0.52l0-2.08l5.98-0.208l0,17.368l2.08,0.52l0,2.08z M130.62704,111.258l0-6.448c-0.494-0.234-1.274-0.39-2.028-0.39c-2.21,0-2.99,1.69-2.99,4.29c0,2.626,0.728,4.03,2.496,4.03c1.664,0,2.522-1.482,2.522-1.482z M151.8043,111.908l0,3.692l-4.004,0l0-3.692l-8.086,0l-0.39-3.068c2.704-3.978,5.408-7.982,8.138-11.96l4.342,0.39l0,11.44l2.6,0l0,3.198l-2.6,0z M147.8523,101.846l-4.628,6.864l4.628,0l0-6.864z M161.72356,115.6l0-2.21l1.95-0.78l0-3.354l-4.758-8.944l-1.69-0.702l0-2.21l7.358-0.13l0,2.34l-1.326,0.546l2.6,5.59l2.756-5.564l-1.43-0.572l0-2.21l7.02-0.13l0,2.34l-1.794,0.702l-4.706,8.918l0,3.38l1.95,0.78l0,2.21l-7.93,0z M184.12282,101.3c4.212,0,6.552,2.548,6.552,7.02c0,4.68-2.73,7.54-6.942,7.54c-4.238,0-6.63-2.21-6.63-7.15c0-4.68,2.782-7.41,7.02-7.41z M183.99282,104.42c-1.898,0-2.86,1.04-2.86,4.16c0,2.86,0.832,4.16,2.73,4.16c1.872,0,2.782-1.17,2.782-4.29c0-2.652-0.78-4.03-2.652-4.03z M193.78208,103.77l0-2.08l5.98-0.13l0,8.97c0,1.43,0.416,2.08,1.586,2.08c1.69,0,2.938-1.404,2.938-1.404l0-6.786l-2.08-0.65l0-2.08l5.98-0.13l0,11.31l2.08,0.52l0,2.028l-5.486,0.182l-0.26-1.82s-2.08,2.08-4.55,2.08c-2.6,0-4.108-1.742-4.108-4.654l0-6.786z"/><path fill="#" d=""/></svg>
